<?xml version="1.0" encoding="UTF-8"?>
<svg id="Layer_1" xmlns="http://www.w3.org/2000/svg" version="1.1" viewBox="0 0 792 612">
  <!-- Generator: Adobe Illustrator 30.1.0, SVG Export Plug-In . SVG Version: 2.1.1 Build 136)  -->
  <defs>
    <style>
      .st0 {
        fill: #8dc63f;
      }

      .st1 {
        fill: #0b4f2c;
      }
    </style>
  </defs>
  <g>
    <g>
      <g>
        <path class="st1" d="M304.89,261.02c2.47,0,4.44,1.99,4.44,4.46s-1.97,4.43-4.44,4.43-4.43-1.96-4.43-4.43,1.96-4.46,4.43-4.46ZM304.89,268.67c1.76,0,3.21-1.43,3.21-3.2s-1.44-3.22-3.21-3.22-3.2,1.47-3.2,3.22,1.44,3.2,3.2,3.2Z"/>
        <path class="st1" d="M311.1,261.38c0-.12.1-.23.23-.23h3.36c1.48,0,2.69,1.17,2.69,2.64,0,1.14-.75,2.07-1.83,2.51l1.69,3.14c.09.16,0,.36-.21.36h-.96c-.1,0-.17-.06-.2-.11l-1.64-3.27h-1.86v3.15c0,.12-.11.23-.23.23h-.8c-.14,0-.23-.11-.23-.23v-8.17ZM314.59,265.34c.8,0,1.51-.68,1.51-1.53,0-.8-.7-1.47-1.51-1.47h-2.2v3h2.2Z"/>
        <path class="st1" d="M319.3,261.38c0-.12.1-.23.23-.23h4.94c.14,0,.23.11.23.23v.69c0,.12-.1.23-.23.23h-3.9v2.52h3.3c.12,0,.23.11.23.23v.69c0,.14-.11.23-.23.23h-3.3v2.65h3.9c.14,0,.23.11.23.23v.68c0,.12-.1.23-.23.23h-4.94c-.14,0-.23-.11-.23-.23v-8.17Z"/>
        <path class="st1" d="M330.35,261.02c1.18,0,2.16.43,3,1.15.1.1.11.25.01.35-.19.2-.37.38-.56.58-.1.11-.2.1-.32-.01-.58-.51-1.35-.84-2.1-.84-1.75,0-3.1,1.48-3.1,3.21s1.35,3.2,3.1,3.2c1.02,0,1.73-.37,1.85-.42v-1.38h-1.21c-.14,0-.23-.1-.23-.22v-.72c0-.14.1-.23.23-.23h2.25c.12,0,.22.11.22.23,0,.99.01,2,.01,2.99,0,.06-.05.16-.1.2,0,0-1.27.81-3.06.81-2.46,0-4.44-1.96-4.44-4.43s1.99-4.46,4.44-4.46Z"/>
        <path class="st1" d="M339.25,261.02c2.47,0,4.44,1.99,4.44,4.46s-1.97,4.43-4.44,4.43-4.43-1.96-4.43-4.43,1.96-4.46,4.43-4.46ZM339.25,268.67c1.76,0,3.21-1.43,3.21-3.2s-1.44-3.22-3.21-3.22-3.2,1.47-3.2,3.22,1.44,3.2,3.2,3.2Z"/>
        <path class="st1" d="M345.46,261.24c0-.12.11-.22.23-.22h.31l5.36,6.2h.01v-5.84c0-.12.1-.23.23-.23h.79c.12,0,.23.11.23.23v8.31c0,.12-.11.22-.23.22h-.32l-5.36-6.37h-.01v6.01c0,.12-.1.23-.23.23h-.78c-.12,0-.23-.11-.23-.23v-8.31Z"/>
      </g>
      <g>
        <path class="st1" d="M356.58,269.46l3.79-8.31c.04-.07.15-.14.21-.14h.12c.06,0,.17.06.21.14l3.76,8.31c.07.16-.02.32-.21.32h-.78c-.15,0-.23-.07-.28-.19l-.77-1.69h-4.04c-.25.57-.51,1.12-.75,1.69-.04.09-.14.19-.28.19h-.78c-.19,0-.28-.16-.21-.32ZM362.18,266.84l-1.52-3.38h-.06l-1.51,3.38h3.09Z"/>
        <path class="st1" d="M365.92,261.38c0-.12.1-.23.23-.23h4.94c.14,0,.23.11.23.23v.69c0,.12-.1.23-.23.23h-3.9v2.85h3.3c.12,0,.23.11.23.23v.68c0,.12-.11.23-.23.23h-3.3v3.25c0,.12-.11.23-.23.23h-.8c-.14,0-.23-.11-.23-.23v-8.17Z"/>
        <path class="st1" d="M372.9,261.38c0-.12.1-.23.23-.23h4.94c.14,0,.23.11.23.23v.69c0,.12-.1.23-.23.23h-3.9v2.85h3.3c.12,0,.23.11.23.23v.68c0,.12-.11.23-.23.23h-3.3v3.25c0,.12-.11.23-.23.23h-.8c-.14,0-.23-.11-.23-.23v-8.17Z"/>
        <path class="st1" d="M383.69,261.02c2.47,0,4.44,1.99,4.44,4.46s-1.97,4.43-4.44,4.43-4.43-1.96-4.43-4.43,1.96-4.46,4.43-4.46ZM383.69,268.67c1.76,0,3.21-1.43,3.21-3.2s-1.44-3.22-3.21-3.22-3.2,1.47-3.2,3.22,1.44,3.2,3.2,3.2Z"/>
        <path class="st1" d="M389.9,261.38c0-.12.1-.23.23-.23h3.36c1.48,0,2.69,1.17,2.69,2.64,0,1.14-.75,2.07-1.83,2.51l1.69,3.14c.09.16,0,.36-.21.36h-.96c-.1,0-.17-.06-.2-.11l-1.64-3.27h-1.86v3.15c0,.12-.11.23-.23.23h-.8c-.14,0-.23-.11-.23-.23v-8.17ZM393.39,265.34c.8,0,1.51-.68,1.51-1.53,0-.8-.7-1.47-1.51-1.47h-2.2v3h2.2Z"/>
        <path class="st1" d="M398.11,261.38c0-.12.1-.23.22-.23h2.84c2.38,0,4.33,1.94,4.33,4.31s-1.95,4.33-4.33,4.33h-2.84c-.12,0-.22-.11-.22-.23v-8.17ZM401,268.61c1.81,0,3.13-1.33,3.13-3.16s-1.32-3.13-3.13-3.13h-1.63v6.29h1.63Z"/>
        <path class="st1" d="M406.06,269.46l3.79-8.31c.04-.07.15-.14.21-.14h.12c.06,0,.17.06.21.14l3.76,8.31c.07.16-.02.32-.21.32h-.78c-.15,0-.23-.07-.28-.19l-.77-1.69h-4.04c-.25.57-.51,1.12-.75,1.69-.04.09-.14.19-.28.19h-.78c-.19,0-.28-.16-.21-.32ZM411.65,266.84l-1.52-3.38h-.06l-1.51,3.38h3.09Z"/>
        <path class="st1" d="M415.39,261.38c0-.12.1-.23.23-.23h2.76c1.49,0,2.57.99,2.57,2.28,0,.95-.7,1.63-1.28,1.96.65.27,1.54.88,1.54,2.01,0,1.38-1.14,2.38-2.69,2.38h-2.9c-.14,0-.23-.11-.23-.23v-8.17ZM418.52,268.64c.75,0,1.33-.58,1.33-1.35s-.72-1.3-1.52-1.3h-1.69v2.64h1.88ZM418.32,264.89c.79,0,1.27-.58,1.27-1.32s-.48-1.27-1.27-1.27h-1.67v2.59h1.67Z"/>
        <path class="st1" d="M423.07,261.38c0-.12.1-.23.23-.23h.81c.12,0,.23.11.23.23v7.26h3.34c.14,0,.23.11.23.23v.68c0,.12-.1.23-.23.23h-4.39c-.14,0-.23-.11-.23-.23v-8.17Z"/>
        <path class="st1" d="M429.23,261.38c0-.12.1-.23.23-.23h4.94c.14,0,.23.11.23.23v.69c0,.12-.1.23-.23.23h-3.9v2.52h3.3c.12,0,.23.11.23.23v.69c0,.14-.11.23-.23.23h-3.3v2.65h3.9c.14,0,.23.11.23.23v.68c0,.12-.1.23-.23.23h-4.94c-.14,0-.23-.11-.23-.23v-8.17Z"/>
      </g>
      <g>
        <path class="st1" d="M307.66,276.22c1.97,0,3.39.66,4.72,1.81.18.16.18.39.02.55l-.86.88c-.14.18-.31.18-.49,0-.92-.8-2.17-1.31-3.37-1.31-2.79,0-4.9,2.34-4.9,5.07s2.13,5.05,4.91,5.05c1.42,0,2.42-.57,3.35-1.29.18-.14.35-.12.47-.02l.9.88c.16.14.12.39-.02.53-1.33,1.29-3,1.89-4.74,1.89-3.9,0-7.04-3.1-7.04-7s3.14-7.04,7.04-7.04Z"/>
        <path class="st1" d="M321.13,276.22c3.9,0,7.02,3.14,7.02,7.04s-3.12,7-7.02,7-7-3.1-7-7,3.1-7.04,7-7.04ZM321.13,288.31c2.79,0,5.07-2.26,5.07-5.05s-2.28-5.09-5.07-5.09-5.05,2.32-5.05,5.09,2.28,5.05,5.05,5.05Z"/>
        <path class="st1" d="M332.43,276.52c.04-.16.19-.29.35-.29h.31c.12,0,.29.1.33.21l4.08,9.97h.08l4.06-9.97c.04-.12.19-.21.33-.21h.31c.16,0,.31.14.35.29l2.4,13.11c.06.27-.08.45-.35.45h-1.27c-.18,0-.33-.14-.37-.27l-1.44-8.72h-.06l-3.51,8.97c-.04.12-.16.21-.33.21h-.35c-.16,0-.29-.1-.33-.21l-3.53-8.97h-.08l-1.4,8.72c-.02.14-.19.27-.35.27h-1.27c-.27,0-.41-.18-.37-.45l2.42-13.11Z"/>
        <path class="st1" d="M349.38,276.52c.04-.16.19-.29.35-.29h.31c.12,0,.29.1.33.21l4.08,9.97h.08l4.06-9.97c.04-.12.19-.21.33-.21h.31c.16,0,.31.14.35.29l2.4,13.11c.06.27-.08.45-.35.45h-1.27c-.18,0-.33-.14-.37-.27l-1.44-8.72h-.06l-3.51,8.97c-.04.12-.16.21-.33.21h-.35c-.16,0-.29-.1-.33-.21l-3.53-8.97h-.08l-1.4,8.72c-.02.14-.19.27-.35.27h-1.27c-.27,0-.41-.18-.37-.45l2.42-13.11Z"/>
        <path class="st1" d="M364.67,276.79c0-.2.18-.37.37-.37h1.31c.21,0,.37.18.37.37v8.05c0,1.95,1.25,3.47,3.24,3.47s3.28-1.5,3.28-3.43v-8.09c0-.2.16-.37.37-.37h1.31c.2,0,.37.18.37.37v8.19c0,2.96-2.24,5.28-5.32,5.28s-5.29-2.32-5.29-5.28v-8.19Z"/>
        <path class="st1" d="M378.89,276.57c0-.2.18-.35.37-.35h.49l8.46,9.79h.02v-9.22c0-.2.16-.37.37-.37h1.25c.2,0,.37.18.37.37v13.12c0,.2-.18.35-.37.35h-.51l-8.46-10.06h-.02v9.5c0,.2-.16.37-.37.37h-1.23c-.2,0-.37-.18-.37-.37v-13.12Z"/>
        <path class="st1" d="M394,276.79c0-.2.18-.37.37-.37h1.29c.2,0,.37.18.37.37v12.91c0,.2-.18.37-.37.37h-1.29c-.2,0-.37-.18-.37-.37v-12.91Z"/>
        <path class="st1" d="M401.69,278.25h-3.18c-.21,0-.37-.18-.37-.37v-1.09c0-.2.16-.37.37-.37h8.39c.21,0,.37.18.37.37v1.09c0,.19-.16.37-.37.37h-3.18v11.45c0,.2-.18.37-.37.37h-1.29c-.2,0-.37-.18-.37-.37v-11.45Z"/>
        <path class="st1" d="M409.38,276.79c0-.2.18-.37.37-.37h1.29c.2,0,.37.18.37.37v12.91c0,.2-.18.37-.37.37h-1.29c-.2,0-.37-.18-.37-.37v-12.91Z"/>
        <path class="st1" d="M415.19,276.79c0-.2.16-.37.37-.37h7.8c.21,0,.37.18.37.37v1.09c0,.19-.16.37-.37.37h-6.16v3.98h5.21c.2,0,.37.18.37.37v1.09c0,.21-.18.37-.37.37h-5.21v4.19h6.16c.21,0,.37.18.37.37v1.07c0,.2-.16.37-.37.37h-7.8c-.21,0-.37-.18-.37-.37v-12.91Z"/>
        <path class="st1" d="M425.8,288.1c.18-.25.33-.55.51-.8s.45-.33.66-.16c.12.1,1.62,1.35,3.12,1.35,1.35,0,2.2-.82,2.2-1.81,0-1.17-1.01-1.91-2.94-2.71-1.99-.84-3.55-1.87-3.55-4.13,0-1.52,1.17-3.61,4.27-3.61,1.95,0,3.41,1.01,3.61,1.15.16.1.31.37.12.66-.16.23-.33.51-.49.74-.16.25-.41.37-.68.2-.14-.08-1.5-.98-2.63-.98-1.64,0-2.2,1.03-2.2,1.76,0,1.11.86,1.79,2.48,2.46,2.26.92,4.19,1.99,4.19,4.37,0,2.03-1.81,3.69-4.35,3.69-2.38,0-3.88-1.25-4.19-1.54-.18-.16-.31-.29-.12-.62Z"/>
      </g>
    </g>
    <g>
      <g>
        <path class="st0" d="M365.31,193.34l-17.09,13.22-41.08,31.68-10.07,7.82c.03.28.08.55.14.83.37,1.59,2.06,5.11,4.05,5.11h133.74c0-1.61,0-3.22,0-4.83l-8.81-6.76-60.89-47.06Z"/>
        <path class="st1" d="M442.39,164.63c.89-1.82,3.58-5.32,2.79-7.41-.8-2.1-2.95-3.58-4.66-4.91-1.84,2.61-2.51-4.15-3.46-4.17-.27,0-38.3-.82-38.5,0-.85,3.42-6.19,2.72-8.69,2.36-2.1-.3-3.71.93-5.54,1.7-2.94,1.23-5.9,2.49-9.01,3.27-2.95.74-5.74.28-8.7.62-1.86.21-3.49,1.26-5.34,1.47-6.3.72-11.2-4.01-17.41-.22-4.94,3.02-7.68,2.85-13.1,1.55-3.99-.95-3.11-3.96-3.11-6.97,0-3.9-3.48-7.8-7.43-7.82-1.41,0-2.12.3-3.46-.41-1.21-.64-1.92-1.76-3.35-2.08-2.06-.46-4.89-1.02-6.86,0-2.49,1.28-1.08,4-.94,6.14.2,3.08-.21,6.16.24,9.24.37,2.54-.55,4.96-.67,7.47-.11,2.18.87,4.29.61,6.46-.24,2.03-1.36,3.87-1.94,5.81-.86,2.85-.15,4.31.3,7,.72,4.33-1,9.1-1.55,13.39-.61,4.71-.95,9.45-1.83,14.12-.91,4.78-2.6,9.3-3.47,14.12-.35,1.97-1.31,3.2-1.99,4.96l57.55-44.47,12.49-9.71,31.8,24.54.04-16.25h17.77s0,30.04,0,30.04l20.05,15.44c0-2.73,0-5.45.01-8.18.04-4.92-.28-10.03.44-14.9.07-.47.16-.94.25-1.4.5-2.42,1.28-4.78,1.45-7.26.09-1.31-.01-2.11-.9-3.06-.03-.03-2.48-1.45-2.11-1.58-4.62,1.54-2.41-5.74-1.21-7.69,4.16-6.79,6.01-14.16,9.48-21.23Z"/>
      </g>
      <path class="st0" d="M410.66,176.04l-4,4.53-4-4.53c-5.78-6.58-8.67-8.04-8.67-12.85,0-2.05.67-3.74,2-5.07,1.16-1.16,2.71-1.74,4.67-1.74,1.69,0,3.11.58,4.27,1.74.62.62,1.2,1.56,1.74,2.8.53-1.24,1.11-2.18,1.73-2.8,1.16-1.16,2.58-1.74,4.27-1.74,1.95,0,3.51.58,4.67,1.74,1.33,1.33,2,3.02,2,5.07,0,4.8-2.89,6.26-8.67,12.85Z"/>
    </g>
  </g>
  <g>
    <g>
      <g>
        <path class="st1" d="M344.27,379.61c5.89,0,10.61,4.75,10.61,10.64s-4.72,10.58-10.61,10.58-10.58-4.69-10.58-10.58,4.69-10.64,10.58-10.64ZM344.27,397.88c4.21,0,7.66-3.42,7.66-7.63s-3.45-7.69-7.66-7.69-7.63,3.51-7.63,7.69,3.45,7.63,7.63,7.63Z"/>
        <path class="st1" d="M359.1,380.47c0-.3.24-.56.56-.56h8.02c3.54,0,6.42,2.8,6.42,6.31,0,2.71-1.8,4.95-4.36,5.98l4.04,7.49c.21.38,0,.85-.5.85h-2.3c-.24,0-.41-.15-.47-.26l-3.92-7.81h-4.45v7.51c0,.3-.27.56-.56.56h-1.92c-.32,0-.56-.26-.56-.56v-19.51ZM367.44,389.93c1.92,0,3.6-1.62,3.6-3.65,0-1.91-1.68-3.51-3.6-3.51h-5.25v7.16h5.25Z"/>
        <path class="st1" d="M378.7,380.47c0-.3.24-.56.56-.56h11.79c.32,0,.56.26.56.56v1.65c0,.29-.24.56-.56.56h-9.31v6.01h7.87c.29,0,.56.27.56.56v1.65c0,.32-.27.56-.56.56h-7.87v6.34h9.31c.32,0,.56.26.56.56v1.62c0,.3-.24.56-.56.56h-11.79c-.32,0-.56-.26-.56-.56v-19.51Z"/>
        <path class="st1" d="M405.08,379.61c2.83,0,5.16,1.03,7.16,2.74.24.24.27.59.03.83-.44.47-.88.91-1.33,1.38-.24.27-.47.24-.77-.03-1.39-1.21-3.21-2-5.01-2-4.19,0-7.4,3.54-7.4,7.66s3.21,7.63,7.4,7.63c2.45,0,4.13-.88,4.42-1v-3.3h-2.89c-.32,0-.56-.24-.56-.53v-1.71c0-.32.24-.56.56-.56h5.36c.29,0,.53.26.53.56,0,2.36.03,4.77.03,7.13,0,.15-.12.38-.24.47,0,0-3.04,1.95-7.31,1.95-5.86,0-10.61-4.69-10.61-10.58s4.75-10.64,10.61-10.64Z"/>
        <path class="st1" d="M426.34,379.61c5.89,0,10.61,4.75,10.61,10.64s-4.72,10.58-10.61,10.58-10.58-4.69-10.58-10.58,4.69-10.64,10.58-10.64ZM426.34,397.88c4.21,0,7.66-3.42,7.66-7.63s-3.45-7.69-7.66-7.69-7.63,3.51-7.63,7.69,3.45,7.63,7.63,7.63Z"/>
        <path class="st1" d="M441.17,380.14c0-.29.27-.53.56-.53h.74l12.79,14.79h.03v-13.94c0-.3.24-.56.56-.56h1.89c.29,0,.56.26.56.56v19.83c0,.29-.27.53-.56.53h-.77l-12.79-15.21h-.03v14.35c0,.3-.24.56-.56.56h-1.86c-.29,0-.56-.26-.56-.56v-19.83Z"/>
      </g>
      <g>
        <path class="st1" d="M467.72,399.77l9.05-19.84c.09-.18.35-.32.5-.32h.29c.15,0,.41.15.5.32l8.99,19.84c.18.38-.06.77-.5.77h-1.86c-.35,0-.56-.18-.68-.44l-1.83-4.04h-9.64c-.59,1.36-1.21,2.68-1.8,4.04-.09.21-.32.44-.68.44h-1.86c-.44,0-.68-.38-.5-.77ZM481.08,393.52l-3.63-8.08h-.15l-3.6,8.08h7.37Z"/>
        <path class="st1" d="M490.01,380.47c0-.3.24-.56.56-.56h11.79c.32,0,.56.26.56.56v1.65c0,.29-.24.56-.56.56h-9.31v6.81h7.87c.29,0,.56.27.56.56v1.62c0,.29-.27.56-.56.56h-7.87v7.75c0,.3-.27.56-.56.56h-1.92c-.32,0-.56-.26-.56-.56v-19.51Z"/>
        <path class="st1" d="M506.69,380.47c0-.3.24-.56.56-.56h11.79c.32,0,.56.26.56.56v1.65c0,.29-.24.56-.56.56h-9.31v6.81h7.87c.29,0,.56.27.56.56v1.62c0,.29-.27.56-.56.56h-7.87v7.75c0,.3-.27.56-.56.56h-1.92c-.32,0-.56-.26-.56-.56v-19.51Z"/>
        <path class="st1" d="M532.45,379.61c5.89,0,10.61,4.75,10.61,10.64s-4.72,10.58-10.61,10.58-10.58-4.69-10.58-10.58,4.69-10.64,10.58-10.64ZM532.45,397.88c4.21,0,7.66-3.42,7.66-7.63s-3.45-7.69-7.66-7.69-7.63,3.51-7.63,7.69,3.45,7.63,7.63,7.63Z"/>
        <path class="st1" d="M547.28,380.47c0-.3.24-.56.56-.56h8.02c3.54,0,6.42,2.8,6.42,6.31,0,2.71-1.8,4.95-4.36,5.98l4.04,7.49c.21.38,0,.85-.5.85h-2.3c-.24,0-.41-.15-.47-.26l-3.92-7.81h-4.45v7.51c0,.3-.27.56-.56.56h-1.92c-.32,0-.56-.26-.56-.56v-19.51ZM555.62,389.93c1.92,0,3.6-1.62,3.6-3.65,0-1.91-1.68-3.51-3.6-3.51h-5.25v7.16h5.25Z"/>
        <path class="st1" d="M566.88,380.47c0-.3.24-.56.53-.56h6.78c5.69,0,10.34,4.63,10.34,10.29s-4.66,10.35-10.34,10.35h-6.78c-.29,0-.53-.26-.53-.56v-19.51ZM573.78,397.74c4.33,0,7.49-3.18,7.49-7.54s-3.15-7.48-7.49-7.48h-3.89v15.03h3.89Z"/>
        <path class="st1" d="M585.87,399.77l9.05-19.84c.09-.18.35-.32.5-.32h.29c.15,0,.41.15.5.32l8.99,19.84c.18.38-.06.77-.5.77h-1.86c-.35,0-.56-.18-.68-.44l-1.83-4.04h-9.64c-.59,1.36-1.21,2.68-1.8,4.04-.09.21-.32.44-.68.44h-1.86c-.44,0-.68-.38-.5-.77ZM599.22,393.52l-3.63-8.08h-.15l-3.6,8.08h7.37Z"/>
        <path class="st1" d="M608.15,380.47c0-.3.24-.56.56-.56h6.6c3.57,0,6.13,2.36,6.13,5.45,0,2.27-1.68,3.89-3.07,4.69,1.56.65,3.68,2.09,3.68,4.8,0,3.3-2.71,5.69-6.42,5.69h-6.93c-.32,0-.56-.26-.56-.56v-19.51ZM615.61,397.82c1.8,0,3.18-1.39,3.18-3.21s-1.71-3.1-3.63-3.1h-4.04v6.31h4.48ZM615.14,388.87c1.89,0,3.04-1.39,3.04-3.15s-1.15-3.03-3.04-3.03h-3.98v6.19h3.98Z"/>
        <path class="st1" d="M626.49,380.47c0-.3.24-.56.56-.56h1.95c.29,0,.56.26.56.56v17.33h7.99c.32,0,.56.26.56.56v1.62c0,.3-.24.56-.56.56h-10.49c-.32,0-.56-.26-.56-.56v-19.51Z"/>
        <path class="st1" d="M641.2,380.47c0-.3.24-.56.56-.56h11.79c.32,0,.56.26.56.56v1.65c0,.29-.24.56-.56.56h-9.31v6.01h7.87c.29,0,.56.27.56.56v1.65c0,.32-.27.56-.56.56h-7.87v6.34h9.31c.32,0,.56.26.56.56v1.62c0,.3-.24.56-.56.56h-11.79c-.32,0-.56-.26-.56-.56v-19.51Z"/>
      </g>
      <g>
        <path class="st1" d="M350.89,415.92c4.7,0,8.1,1.58,11.27,4.33.42.37.42.93.05,1.3l-2.05,2.09c-.32.42-.75.42-1.16,0-2.19-1.91-5.17-3.12-8.06-3.12-6.66,0-11.69,5.59-11.69,12.11s5.08,12.06,11.74,12.06c3.4,0,5.77-1.35,8.01-3.07.42-.32.84-.28,1.12-.05l2.14,2.1c.37.32.28.93-.05,1.26-3.17,3.08-7.17,4.52-11.31,4.52-9.31,0-16.81-7.4-16.81-16.72s7.5-16.81,16.81-16.81Z"/>
        <path class="st1" d="M383.07,415.92c9.31,0,16.76,7.5,16.76,16.81s-7.45,16.72-16.76,16.72-16.72-7.4-16.72-16.72,7.41-16.81,16.72-16.81ZM383.07,444.79c6.66,0,12.11-5.4,12.11-12.06s-5.45-12.16-12.11-12.16-12.06,5.54-12.06,12.16,5.45,12.06,12.06,12.06Z"/>
        <path class="st1" d="M410.04,416.62c.09-.37.46-.7.84-.7h.75c.28,0,.7.23.79.51l9.73,23.8h.19l9.69-23.8c.09-.28.46-.51.79-.51h.75c.37,0,.75.32.84.7l5.73,31.29c.14.65-.19,1.07-.84,1.07h-3.03c-.42,0-.79-.33-.88-.65l-3.45-20.81h-.14l-8.38,21.42c-.09.28-.37.51-.79.51h-.84c-.37,0-.7-.23-.79-.51l-8.43-21.42h-.19l-3.35,20.81c-.05.32-.46.65-.84.65h-3.03c-.65,0-.98-.42-.88-1.07l5.77-31.29Z"/>
        <path class="st1" d="M450.51,416.62c.09-.37.46-.7.84-.7h.75c.28,0,.7.23.79.51l9.73,23.8h.19l9.69-23.8c.09-.28.46-.51.79-.51h.75c.37,0,.75.32.84.7l5.73,31.29c.14.65-.19,1.07-.84,1.07h-3.03c-.42,0-.79-.33-.88-.65l-3.45-20.81h-.14l-8.38,21.42c-.09.28-.37.51-.79.51h-.84c-.37,0-.7-.23-.79-.51l-8.43-21.42h-.19l-3.35,20.81c-.05.32-.46.65-.84.65h-3.03c-.65,0-.98-.42-.88-1.07l5.77-31.29Z"/>
        <path class="st1" d="M487.03,417.27c0-.47.42-.89.89-.89h3.12c.51,0,.88.42.88.89v19.23c0,4.66,2.98,8.29,7.73,8.29s7.82-3.59,7.82-8.2v-19.32c0-.47.37-.89.88-.89h3.12c.47,0,.89.42.89.89v19.56c0,7.08-5.36,12.62-12.71,12.62s-12.62-5.54-12.62-12.62v-19.56Z"/>
        <path class="st1" d="M520.99,416.76c0-.47.42-.84.88-.84h1.17l20.21,23.38h.05v-22.03c0-.47.37-.89.88-.89h2.98c.47,0,.89.42.89.89v31.34c0,.47-.42.84-.89.84h-1.21l-20.21-24.03h-.05v22.68c0,.47-.37.89-.89.89h-2.93c-.47,0-.88-.42-.88-.89v-31.34Z"/>
        <path class="st1" d="M557.08,417.27c0-.47.42-.89.89-.89h3.07c.47,0,.88.42.88.89v30.83c0,.47-.42.89-.88.89h-3.07c-.47,0-.89-.42-.89-.89v-30.83Z"/>
        <path class="st1" d="M575.43,420.77h-7.59c-.51,0-.88-.42-.88-.88v-2.61c0-.47.37-.89.88-.89h20.02c.51,0,.89.42.89.89v2.61c0,.46-.37.88-.89.88h-7.59v27.33c0,.47-.42.89-.88.89h-3.07c-.47,0-.89-.42-.89-.89v-27.33Z"/>
        <path class="st1" d="M593.78,417.27c0-.47.42-.89.88-.89h3.07c.47,0,.89.42.89.89v30.83c0,.47-.42.89-.89.89h-3.07c-.47,0-.88-.42-.88-.89v-30.83Z"/>
        <path class="st1" d="M607.66,417.27c0-.47.37-.89.88-.89h18.63c.51,0,.88.42.88.89v2.61c0,.46-.37.88-.88.88h-14.72v9.5h12.43c.47,0,.89.42.89.88v2.61c0,.51-.42.89-.89.89h-12.43v10.01h14.72c.51,0,.88.42.88.88v2.56c0,.47-.37.89-.88.89h-18.63c-.51,0-.88-.42-.88-.89v-30.83Z"/>
        <path class="st1" d="M633,444.28c.42-.61.79-1.3,1.21-1.91s1.07-.79,1.58-.37c.28.23,3.87,3.21,7.45,3.21,3.21,0,5.26-1.96,5.26-4.33,0-2.79-2.42-4.56-7.03-6.47-4.75-2-8.48-4.47-8.48-9.87,0-3.63,2.79-8.62,10.2-8.62,4.66,0,8.15,2.42,8.61,2.75.37.23.75.89.28,1.59-.37.56-.79,1.21-1.17,1.77-.37.61-.98.89-1.63.47-.32-.19-3.59-2.33-6.29-2.33-3.91,0-5.26,2.47-5.26,4.19,0,2.65,2.05,4.28,5.91,5.87,5.4,2.19,10.01,4.75,10.01,10.43,0,4.84-4.33,8.8-10.39,8.8-5.68,0-9.27-2.98-10.01-3.68-.42-.37-.75-.7-.28-1.49Z"/>
      </g>
    </g>
    <g>
      <g>
        <path class="st0" d="M241.86,411.35l-17.09,13.22-41.08,31.68-10.07,7.82c.03.28.08.55.14.83.37,1.59,2.06,5.11,4.05,5.11h133.74c0-1.61,0-3.22,0-4.83l-8.81-6.76-60.89-47.06Z"/>
        <path class="st1" d="M318.94,382.64c.89-1.82,3.58-5.32,2.79-7.41-.8-2.1-2.95-3.58-4.66-4.91-1.84,2.61-2.51-4.15-3.46-4.17-.27,0-38.3-.82-38.5,0-.85,3.42-6.19,2.72-8.69,2.36-2.1-.3-3.71.93-5.54,1.7-2.94,1.23-5.9,2.49-9.01,3.27-2.95.74-5.74.28-8.7.62-1.86.21-3.49,1.26-5.34,1.47-6.3.72-11.2-4.01-17.41-.22-4.94,3.02-7.68,2.85-13.1,1.55-3.99-.95-3.11-3.96-3.11-6.97,0-3.9-3.48-7.8-7.43-7.82-1.41,0-2.12.3-3.46-.41-1.21-.64-1.92-1.76-3.35-2.08-2.06-.46-4.89-1.02-6.86,0-2.49,1.28-1.08,4-.94,6.14.2,3.08-.21,6.16.24,9.24.37,2.54-.55,4.96-.67,7.47-.11,2.18.87,4.29.61,6.46-.24,2.03-1.36,3.87-1.94,5.81-.86,2.85-.15,4.31.3,7,.72,4.33-1,9.1-1.55,13.39-.61,4.71-.95,9.45-1.83,14.12-.91,4.78-2.6,9.3-3.47,14.12-.35,1.97-1.31,3.2-1.99,4.96l57.55-44.47,12.49-9.71,31.8,24.54.04-16.25h17.77s0,30.04,0,30.04l20.05,15.44c0-2.73,0-5.45.01-8.18.04-4.92-.28-10.03.44-14.9.07-.47.16-.94.25-1.4.5-2.42,1.28-4.78,1.45-7.26.09-1.31-.01-2.11-.9-3.06-.03-.03-2.48-1.45-2.11-1.58-4.62,1.54-2.41-5.74-1.21-7.69,4.16-6.79,6.01-14.16,9.48-21.23Z"/>
      </g>
      <path class="st0" d="M287.21,394.05l-4,4.53-4-4.53c-5.78-6.58-8.67-8.04-8.67-12.85,0-2.05.67-3.74,2-5.07,1.16-1.16,2.71-1.74,4.67-1.74,1.69,0,3.11.58,4.27,1.74.62.62,1.2,1.56,1.74,2.8.53-1.24,1.11-2.18,1.73-2.8,1.16-1.16,2.58-1.74,4.27-1.74,1.95,0,3.51.58,4.67,1.74,1.33,1.33,2,3.02,2,5.07,0,4.8-2.89,6.26-8.67,12.85Z"/>
    </g>
  </g>
</svg>